<?xml version="1.0" encoding="utf-8"?>
<!-- Generator: Adobe Illustrator 16.0.0, SVG Export Plug-In . SVG Version: 6.00 Build 0)  -->
<!DOCTYPE svg PUBLIC "-//W3C//DTD SVG 1.1//EN" "http://www.w3.org/Graphics/SVG/1.1/DTD/svg11.dtd">
<svg version="1.1" id="Calque_1" xmlns="http://www.w3.org/2000/svg" xmlns:xlink="http://www.w3.org/1999/xlink" x="0px" y="0px"
	 width="16px" height="16.001px" viewBox="0 0 16 16.001" enable-background="new 0 0 16 16.001" xml:space="preserve">
<path fill-rule="evenodd" clip-rule="evenodd" fill="{%color.black%}" d="M15.853,14.42l-1.434,1.433c-0.197,0.197-0.52,0.197-0.717,0
	l-2.79-2.791c-1.104,0.707-2.413,1.123-3.82,1.123C3.175,14.185,0,11.009,0,7.093C0,3.175,3.175,0,7.092,0
	c3.917,0,7.092,3.175,7.092,7.093c0,1.408-0.415,2.717-1.123,3.821l2.792,2.79C16.049,13.901,16.049,14.223,15.853,14.42z
	 M7.092,2.027c-2.793,0-5.066,2.272-5.066,5.066s2.272,5.066,5.066,5.066c2.793,0,5.066-2.272,5.066-5.066S9.885,2.027,7.092,2.027z
	 M8.105,10.132H6.079V8.106H4.053V6.08h2.026V4.053h2.026V6.08h2.026v2.026H8.105V10.132z"/>
</svg>
