<?xml version="1.0" encoding="UTF-8" standalone="no"?>
<!-- Generator: Adobe Illustrator 16.0.0, SVG Export Plug-In . SVG Version: 6.00 Build 0)  -->

<svg
   xmlns:dc="http://purl.org/dc/elements/1.1/"
   xmlns:cc="http://creativecommons.org/ns#"
   xmlns:rdf="http://www.w3.org/1999/02/22-rdf-syntax-ns#"
   xmlns:svg="http://www.w3.org/2000/svg"
   xmlns="http://www.w3.org/2000/svg"
   xmlns:sodipodi="http://sodipodi.sourceforge.net/DTD/sodipodi-0.dtd"
   xmlns:inkscape="http://www.inkscape.org/namespaces/inkscape"
   version="1.1"
   id="Calque_1"
   x="0px"
   y="0px"
   width="30"
   height="30"
   viewBox="0 0 30 30"
   enable-background="new 0 0 15.997 16"
   xml:space="preserve"
   inkscape:version="0.48.4 r9939"
   sodipodi:docname="Clef.svg"><metadata
     id="metadata9"><rdf:RDF><cc:Work
         rdf:about=""><dc:format>image/svg+xml</dc:format><dc:type
           rdf:resource="http://purl.org/dc/dcmitype/StillImage" /></cc:Work></rdf:RDF></metadata><defs
     id="defs7" /><sodipodi:namedview
     pagecolor="#ffffff"
     bordercolor="#666666"
     borderopacity="1"
     objecttolerance="10"
     gridtolerance="10"
     guidetolerance="10"
     inkscape:pageopacity="0"
     inkscape:pageshadow="2"
     inkscape:window-width="2560"
     inkscape:window-height="1354"
     id="namedview5"
     showgrid="false"
     inkscape:zoom="14.75"
     inkscape:cx="7.9984999"
     inkscape:cy="8"
     inkscape:window-x="0"
     inkscape:window-y="24"
     inkscape:window-maximized="1"
     inkscape:current-layer="Calque_1" /><path
     clip-rule="evenodd"
     d="M 29.892477,8.0603693 C 29.898083,7.6604738 29.658893,7.2998203 29.290765,7.1428519 28.924505,6.9877522 28.49658,7.0737111 28.212542,7.3540117 L 24.830247,10.740043 23.7296,9.6393962 20.358518,6.2683139 19.257871,5.1676668 22.640165,1.7816351 C 22.924203,1.5013345 23.008293,1.0734088 22.855062,0.70528067 22.698094,0.33902117 22.335572,0.0998313 21.939414,0.10169997 19.954885,0.11664934 17.985306,0.86785504 16.471682,2.3833471 14.087258,4.7659025 13.575243,8.2939532 14.883312,11.195999 L 2.5407409,21.884797 1.1485811,23.278825 c -1.53044147,1.534179 -1.53044147,4.040067 0,5.568639 1.5341788,1.536048 4.0400665,1.536048 5.5705079,0 L 8.1112489,27.457173 18.805652,15.116471 c 2.902046,1.308069 6.424491,0.796053 8.810784,-1.590239 1.511754,-1.513624 2.261091,-3.48694 2.276041,-5.4658627 z M 5.3269292,27.457173 c -0.7698924,0.768024 -2.0162959,0.768024 -2.7861883,0 -0.7698924,-0.769892 -0.7698924,-2.018164 0,-2.786188 0.7698924,-0.769892 2.0162959,-0.769892 2.7861883,0 0.7680238,0.768024 0.7680238,2.016296 0,2.786188 z"
     id="path3"
     inkscape:connector-curvature="0"
     style="fill:{%color.black%};fill-rule:evenodd" /></svg>