<?xml version="1.0" encoding="UTF-8" standalone="no"?>
<!-- Generator: Adobe Illustrator 17.1.0, SVG Export Plug-In . SVG Version: 6.00 Build 0)  -->

<svg
   xmlns:dc="http://purl.org/dc/elements/1.1/"
   xmlns:cc="http://creativecommons.org/ns#"
   xmlns:rdf="http://www.w3.org/1999/02/22-rdf-syntax-ns#"
   xmlns:svg="http://www.w3.org/2000/svg"
   xmlns="http://www.w3.org/2000/svg"
   xmlns:sodipodi="http://sodipodi.sourceforge.net/DTD/sodipodi-0.dtd"
   xmlns:inkscape="http://www.inkscape.org/namespaces/inkscape"
   version="1.1"
   id="Capa_1"
   x="0px"
   y="0px"
   viewBox="0 0 30 30"
   xml:space="preserve"
   inkscape:version="0.48.4 r9939"
   width="100%"
   height="100%"
   sodipodi:docname="File.svg"><metadata
     id="metadata39"><rdf:RDF><cc:Work
         rdf:about=""><dc:format>image/svg+xml</dc:format><dc:type
           rdf:resource="http://purl.org/dc/dcmitype/StillImage" /></cc:Work></rdf:RDF></metadata><defs
     id="defs37" /><sodipodi:namedview
     pagecolor="#ffffff"
     bordercolor="#666666"
     borderopacity="1"
     objecttolerance="10"
     gridtolerance="10"
     guidetolerance="10"
     inkscape:pageopacity="0"
     inkscape:pageshadow="2"
     inkscape:window-width="2560"
     inkscape:window-height="1354"
     id="namedview35"
     showgrid="false"
     inkscape:zoom="15.287449"
     inkscape:cx="26.18156"
     inkscape:cy="19.763661"
     inkscape:window-x="0"
     inkscape:window-y="24"
     inkscape:window-maximized="1"
     inkscape:current-layer="Capa_1" /><path
     d="m 20.862064,5.9102405 c -0.502514,0 -0.950084,-0.4071785 -0.950084,-0.9096929 V 0.08820704 H 5.0940555 c -0.5025143,0 -0.9500832,0.40717848 -0.9500832,0.90969209 V 29.016437 c 0,0.501301 0.4257362,0.938439 0.9271589,0.940016 l 20.0334968,0.09097 c 9.54e-4,0 0.0018,0 0.0018,0 0.241735,0 0.452541,-0.12578 0.622957,-0.295711 0.171265,-0.170658 0.247316,-0.432771 0.247316,-0.674628 V 5.9102405 h -5.114657 z m 0.06064,16.1318855 H 8.914765 c -0.5025145,0 -0.9096929,-0.407179 -0.9096929,-0.909693 0,-0.502515 0.4071784,-0.909693 0.9096929,-0.909693 H 20.92271 c 0.502514,0 0.909693,0.407178 0.909693,0.909693 0,0.502514 -0.407179,0.909693 -0.909693,0.909693 z m 0,-4.002649 H 8.914765 c -0.5025145,0 -0.9096929,-0.407178 -0.9096929,-0.909693 0,-0.502514 0.4071784,-0.909692 0.9096929,-0.909692 H 20.92271 c 0.502514,0 0.909693,0.407178 0.909693,0.909692 0,0.502515 -0.407179,0.909693 -0.909693,0.909693 z m 0,-4.002648 H 8.914765 c -0.5025145,0 -0.9096929,-0.407179 -0.9096929,-0.909693 0,-0.502514 0.4071784,-0.909693 0.9096929,-0.909693 H 20.92271 c 0.502514,0 0.909693,0.407179 0.909693,0.909693 0,0.502514 -0.407179,0.909693 -0.909693,0.909693 z m 0,-3.760063 H 8.914765 c -0.5025145,0 -0.9096929,-0.4071788 -0.9096929,-0.9096933 0,-0.5025136 0.4071784,-0.9096921 0.9096929,-0.9096921 H 20.92271 c 0.502514,0 0.909693,0.4071785 0.909693,0.9096921 0,0.5025145 -0.407179,0.9096933 -0.909693,0.9096933 z M 25.645103,4.0908546 H 21.731366 V 0.37724668 l 3.913741,3.71360792 z"
     id="path3"
	 style="fill:{%color.black%};fill-rule:evenodd"
     inkscape:connector-curvature="0" /><g
     id="g5"
     transform="translate(0,-217)" /><g
     id="g7"
     transform="translate(0,-217)" /><g
     id="g9"
     transform="translate(0,-217)" /><g
     id="g11"
     transform="translate(0,-217)" /><g
     id="g13"
     transform="translate(0,-217)" /><g
     id="g15"
     transform="translate(0,-217)" /><g
     id="g17"
     transform="translate(0,-217)" /><g
     id="g19"
     transform="translate(0,-217)" /><g
     id="g21"
     transform="translate(0,-217)" /><g
     id="g23"
     transform="translate(0,-217)" /><g
     id="g25"
     transform="translate(0,-217)" /><g
     id="g27"
     transform="translate(0,-217)" /><g
     id="g29"
     transform="translate(0,-217)" /><g
     id="g31"
     transform="translate(0,-217)" /><g
     id="g33"
     transform="translate(0,-217)" /></svg>