<?xml version="1.0" encoding="utf-8"?>
<!-- Generator: Adobe Illustrator 16.0.0, SVG Export Plug-In . SVG Version: 6.00 Build 0)  -->
<!DOCTYPE svg PUBLIC "-//W3C//DTD SVG 1.1//EN" "http://www.w3.org/Graphics/SVG/1.1/DTD/svg11.dtd">
<svg version="1.1" id="Calque_1" xmlns="http://www.w3.org/2000/svg" xmlns:xlink="http://www.w3.org/1999/xlink" x="0px" y="0px"
	 width="16.004px" height="16.003px" viewBox="0 0 16.004 16.003" enable-background="new 0 0 16.004 16.003" xml:space="preserve">
<path fill-rule="evenodd" clip-rule="evenodd" fill="#434A54" d="M14.937,9.603H13.87c-0.076,0-0.145-0.027-0.216-0.045
	c-0.138,0.5-0.34,0.972-0.596,1.409c0.024,0.021,0.056,0.029,0.079,0.052l0.754,0.755c0.2,0.2,0.312,0.472,0.312,0.754
	c0,0.284-0.112,0.555-0.312,0.755l-0.755,0.754c-0.417,0.417-1.092,0.417-1.509,0l-0.754-0.754
	c-0.035-0.033-0.052-0.082-0.081-0.119c-0.386,0.209-0.802,0.371-1.234,0.49c0.016,0.072,0.044,0.141,0.044,0.217v1.066
	c0,0.59-0.479,1.066-1.067,1.066H7.469c-0.589,0-1.067-0.477-1.067-1.066v-1.066c0-0.076,0.028-0.145,0.044-0.217
	c-0.513-0.141-0.997-0.351-1.443-0.617c-0.048,0.086-0.09,0.173-0.163,0.246l-0.754,0.754c-0.417,0.417-1.093,0.417-1.51,0
	l-0.754-0.754c-0.417-0.417-0.417-1.092,0-1.509l0.754-0.755C2.66,10.936,2.76,10.88,2.862,10.83
	c-0.219-0.398-0.39-0.824-0.513-1.271C2.278,9.576,2.21,9.603,2.134,9.603H1.067C0.479,9.603,0,9.125,0,8.536V7.469
	C0,6.88,0.479,6.402,1.067,6.402h1.066c0.076,0,0.145,0.029,0.216,0.043C2.473,6,2.644,5.573,2.862,5.176
	C2.759,5.125,2.658,5.068,2.575,4.985L1.82,4.23c-0.416-0.417-0.416-1.092,0-1.509l0.755-0.755c0.2-0.2,0.473-0.312,0.755-0.312
	s0.554,0.112,0.755,0.312L4.84,2.722c0.073,0.073,0.115,0.161,0.162,0.246c0.447-0.267,0.931-0.475,1.443-0.617
	C6.43,2.279,6.401,2.211,6.401,2.134V1.067C6.401,0.479,6.88,0,7.469,0h1.066c0.589,0,1.067,0.479,1.067,1.067v1.067
	c0,0.077-0.028,0.145-0.044,0.217c0.433,0.119,0.849,0.282,1.234,0.492c0.029-0.04,0.045-0.085,0.081-0.121l0.755-0.756
	c0.417-0.417,1.092-0.417,1.509,0l0.755,0.756c0.417,0.417,0.417,1.092,0,1.509l-0.755,0.754c-0.023,0.023-0.055,0.033-0.079,0.054
	c0.256,0.435,0.458,0.908,0.596,1.406c0.071-0.015,0.14-0.043,0.216-0.043h1.066c0.589,0,1.067,0.478,1.067,1.067v1.067
	C16.004,9.125,15.525,9.603,14.937,9.603z M8.002,4.268c-2.062,0-3.734,1.673-3.734,3.734c0,2.063,1.673,3.734,3.734,3.734
	s3.734-1.671,3.734-3.734C11.736,5.941,10.063,4.268,8.002,4.268z M8.002,9.603c-0.884,0-1.601-0.717-1.601-1.601
	c0-0.883,0.717-1.6,1.601-1.6s1.601,0.717,1.601,1.6C9.603,8.886,8.886,9.603,8.002,9.603z"/>
</svg>
