<?xml version="1.0" encoding="utf-8"?>
<!-- Generator: Adobe Illustrator 19.1.0, SVG Export Plug-In . SVG Version: 6.00 Build 0)  -->
<!DOCTYPE svg PUBLIC "-//W3C//DTD SVG 1.1//EN" "http://www.w3.org/Graphics/SVG/1.1/DTD/svg11.dtd">
<svg version="1.1" id="Calque_1" xmlns="http://www.w3.org/2000/svg" xmlns:xlink="http://www.w3.org/1999/xlink" x="0px" y="0px"
	 viewBox="0 0 12 12" style="enable-background:new 0 0 12 12;" xml:space="preserve">
<style type="text/css">
	.st0{fill-rule:evenodd;clip-rule:evenodd;fill:{%color.white%};}
</style>
<path class="st0" d="M7.3,6l1.5-1.5C9,4.3,9,4,8.9,3.8L8.2,3.1C8,2.9,7.7,2.9,7.5,3.1L6,4.6L4.5,3.1C4.3,2.9,4,2.9,3.8,3.1L3.1,3.8
	C3,4,3,4.3,3.1,4.5L4.7,6L3.1,7.5C3,7.7,3,8,3.1,8.2l0.7,0.7c0.2,0.2,0.5,0.2,0.7,0L6,7.4l1.5,1.5c0.2,0.2,0.5,0.2,0.7,0l0.7-0.7
	C9,8,9,7.7,8.9,7.5L7.3,6z"/>
</svg>
