<?xml version="1.0" encoding="UTF-8" standalone="no"?>
<!-- Created with Inkscape (http://www.inkscape.org/) -->

<svg
   xmlns:dc="http://purl.org/dc/elements/1.1/"
   xmlns:cc="http://creativecommons.org/ns#"
   xmlns:rdf="http://www.w3.org/1999/02/22-rdf-syntax-ns#"
   xmlns:svg="http://www.w3.org/2000/svg"
   xmlns="http://www.w3.org/2000/svg"
   xmlns:sodipodi="http://sodipodi.sourceforge.net/DTD/sodipodi-0.dtd"
   xmlns:inkscape="http://www.inkscape.org/namespaces/inkscape"
   id="svg3039"
   version="1.1"
   inkscape:version="0.48.4 r9939"
   width="200"
   height="200"
   sodipodi:docname="DeleteAssembly.svg">
  <metadata
     id="metadata3045">
    <rdf:RDF>
      <cc:Work
         rdf:about="">
        <dc:format>image/svg+xml</dc:format>
        <dc:type
           rdf:resource="http://purl.org/dc/dcmitype/StillImage" />
        <dc:title></dc:title>
      </cc:Work>
    </rdf:RDF>
  </metadata>
  <defs
     id="defs3043">
    <inkscape:perspective
       sodipodi:type="inkscape:persp3d"
       inkscape:vp_x="0 : 234.5 : 1"
       inkscape:vp_y="0 : 1000 : 0"
       inkscape:vp_z="450 : 234.5 : 1"
       inkscape:persp3d-origin="225 : 156.33333 : 1"
       id="perspective3826" />
  </defs>
  <sodipodi:namedview
     pagecolor="#ffffff"
     bordercolor="#666666"
     borderopacity="1"
     objecttolerance="10"
     gridtolerance="10"
     guidetolerance="10"
     inkscape:pageopacity="0"
     inkscape:pageshadow="2"
     inkscape:window-width="1920"
     inkscape:window-height="994"
     id="namedview3041"
     showgrid="false"
     fit-margin-top="0"
     fit-margin-left="0"
     fit-margin-right="0"
     fit-margin-bottom="0"
     inkscape:zoom="2.0127932"
     inkscape:cx="2.0734849"
     inkscape:cy="63.671053"
     inkscape:window-x="0"
     inkscape:window-y="24"
     inkscape:window-maximized="1"
     inkscape:current-layer="svg3039" />
  <a
     id="a3821"
     style="fill:none;stroke:#37bc9b;stroke-opacity:1"
     transform="translate(-161.87499,-100.5625)" />
  <text
     xml:space="preserve"
     style="font-size:40px;font-style:normal;font-variant:normal;font-weight:bold;font-stretch:normal;line-height:125%;letter-spacing:0px;word-spacing:0px;fill:#37bc9b;fill-opacity:1;stroke:none;font-family:Verdana;-inkscape-font-specification:Verdana Bold"
     x="143.27734"
     y="62.99057"
     id="text3872"
     sodipodi:linespacing="125%"><tspan
       sodipodi:role="line"
       id="tspan3874"
       x="143.27734"
       y="62.99057"
       style="font-size:72px;font-style:normal;font-variant:normal;font-weight:bold;font-stretch:normal;fill:#37bc9b;fill-opacity:1;font-family:Verdana;-inkscape-font-specification:Verdana Bold">P</tspan></text>
  <path
     style="font-size:medium;font-style:normal;font-variant:normal;font-weight:normal;font-stretch:normal;text-indent:0;text-align:start;text-decoration:none;line-height:normal;letter-spacing:normal;word-spacing:normal;text-transform:none;direction:ltr;block-progression:tb;writing-mode:lr-tb;text-anchor:start;baseline-shift:baseline;color:#000000;fill:#37bc9b;fill-opacity:1;stroke:none;stroke-width:14.07102202999999996;marker:none;visibility:visible;display:inline;overflow:visible;enable-background:accumulate;font-family:Sans;-inkscape-font-specification:Sans"
     d="M 53.15625 36.1875 A 10.309833 10.309833 0 0 0 42.84375 46.5 L 42.84375 61.5 L 25.5625 61.3125 C 21.840082 61.2655 18.423296 64.652312 18.4375 68.375 L 18.78125 185.4375 C 18.80014 189.10791 22.142042 192.43496 25.8125 192.4375 L 121.9375 192.4375 C 125.61834 192.4345 128.96615 189.08709 128.96875 185.40625 L 128.96875 69.375 C 128.96675 65.725177 125.68071 62.394955 122.03125 62.34375 L 104.6875 62.15625 L 104.6875 46.5 A 10.309833 10.309833 0 0 0 94.375 36.1875 L 53.15625 36.1875 z M 97.5625 85.15625 A 5.8505849 5.8505849 0 0 1 103.5 91.09375 L 103.5 165.5625 A 5.8505849 5.8505849 0 1 1 91.8125 165.5625 L 91.8125 91.09375 A 5.8505849 5.8505849 0 0 1 97.5625 85.15625 z M 49.09375 85.5 A 5.8505849 5.8505849 0 0 1 55.03125 91.4375 L 55.03125 165.9375 A 5.8505849 5.8505849 0 1 1 43.34375 165.9375 L 43.34375 91.4375 A 5.8505849 5.8505849 0 0 1 49.09375 85.5 z M 73.6875 85.5 A 5.8505849 5.8505849 0 0 1 79.625 91.4375 L 79.625 165.9375 A 5.8505849 5.8505849 0 1 1 67.9375 165.9375 L 67.9375 91.4375 A 5.8505849 5.8505849 0 0 1 73.6875 85.5 z "
     id="path4678" />
  <rect
     style="fill:#74bc9b;fill-opacity:1;stroke:none"
     id="rect4747"
     width="131.73984"
     height="20.024456"
     x="7.8365741"
     y="52.802689" />
</svg>
