<?xml version="1.0" encoding="UTF-8" standalone="no"?>
<!-- Created with Inkscape (http://www.inkscape.org/) -->

<svg
   xmlns:dc="http://purl.org/dc/elements/1.1/"
   xmlns:cc="http://creativecommons.org/ns#"
   xmlns:rdf="http://www.w3.org/1999/02/22-rdf-syntax-ns#"
   xmlns:svg="http://www.w3.org/2000/svg"
   xmlns="http://www.w3.org/2000/svg"
   xmlns:sodipodi="http://sodipodi.sourceforge.net/DTD/sodipodi-0.dtd"
   xmlns:inkscape="http://www.inkscape.org/namespaces/inkscape"
   id="svg3039"
   version="1.1"
   inkscape:version="0.48.4 r9939"
   width="200"
   height="200"
   sodipodi:docname="user.svg"
   inkscape:export-filename="/home/data/Projects/MatisseWorkspace/Src/MatisseServer/ui/resources/user.png"
   inkscape:export-xdpi="301"
   inkscape:export-ydpi="301">
  <metadata
     id="metadata3045">
    <rdf:RDF>
      <cc:Work
         rdf:about="">
        <dc:format>image/svg+xml</dc:format>
        <dc:type
           rdf:resource="http://purl.org/dc/dcmitype/StillImage" />
        <dc:title></dc:title>
      </cc:Work>
    </rdf:RDF>
  </metadata>
  <defs
     id="defs3043">
    <marker
       inkscape:stockid="TriangleOutL"
       orient="auto"
       refY="0.0"
       refX="0.0"
       id="TriangleOutL"
       style="overflow:visible">
      <path
         id="path3913"
         d="M 5.77,0.0 L -2.88,5.0 L -2.88,-5.0 L 5.77,0.0 z "
         style="fill-rule:evenodd;stroke:#000000;stroke-width:1.0pt"
         transform="scale(0.8)" />
    </marker>
    <marker
       inkscape:stockid="Arrow2Lend"
       orient="auto"
       refY="0.0"
       refX="0.0"
       id="Arrow2Lend"
       style="overflow:visible;">
      <path
         id="path3792"
         style="fill-rule:evenodd;stroke-width:0.62500000;stroke-linejoin:round;"
         d="M 8.7185878,4.0337352 L -2.2072895,0.016013256 L 8.7185884,-4.0017078 C 6.9730900,-1.6296469 6.9831476,1.6157441 8.7185878,4.0337352 z "
         transform="scale(1.1) rotate(180) translate(1,0)" />
    </marker>
    <inkscape:perspective
       sodipodi:type="inkscape:persp3d"
       inkscape:vp_x="0 : 234.5 : 1"
       inkscape:vp_y="0 : 1000 : 0"
       inkscape:vp_z="450 : 234.5 : 1"
       inkscape:persp3d-origin="225 : 156.33333 : 1"
       id="perspective3826" />
  </defs>
  <sodipodi:namedview
     pagecolor="#ffffff"
     bordercolor="#666666"
     borderopacity="1"
     objecttolerance="10"
     gridtolerance="10"
     guidetolerance="10"
     inkscape:pageopacity="0"
     inkscape:pageshadow="2"
     inkscape:window-width="1920"
     inkscape:window-height="994"
     id="namedview3041"
     showgrid="false"
     fit-margin-top="0"
     fit-margin-left="0"
     fit-margin-right="0"
     fit-margin-bottom="0"
     inkscape:zoom="2.8465194"
     inkscape:cx="-3.0376396"
     inkscape:cy="77.183699"
     inkscape:window-x="0"
     inkscape:window-y="24"
     inkscape:window-maximized="1"
     inkscape:current-layer="svg3039" />
  <a
     id="a3821"
     style="fill:none;stroke:#37bc9b;stroke-opacity:1"
     transform="translate(-161.87499,-100.5625)" />
  <g
     transform="matrix(7.2663699,0,0,-7.2663699,123.54668,94.939262)"
     id="g100"
     style="fill:#37bc9b;fill-opacity:1">
    <path
       d="m 0,0 0.8,0 0,-6.399 1.6,0 L 2.4,0 3.2,0 C 3.639,0 4,0.359 4,0.8 4,1.239 3.639,1.6 3.2,1.6 l -0.8,0 0,3.2 -1.6,0 0,-3.2 -0.8,0 C -0.439,1.6 -0.8,1.239 -0.8,0.8 -0.8,0.359 -0.439,0 0,0 m -4.8,-3.2 0.8,0 0,-3.199 1.6,0 0,3.199 0.8,0 c 0.439,0 0.8,0.359 0.8,0.801 0,0.438 -0.361,0.799 -0.8,0.799 l -0.8,0 0,6.4 -1.6,0 0,-6.4 -0.8,0 c -0.438,0 -0.8,-0.361 -0.8,-0.799 0,-0.442 0.362,-0.801 0.8,-0.801 m -4.8,4.8 0.8,0 0,-7.999 1.601,0 0,7.999 0.8,0 c 0.438,0 0.799,0.359 0.799,0.8 0,0.439 -0.361,0.8 -0.799,0.8 l -0.8,0 0,1.6 -1.601,0 0,-1.6 -0.8,0 c -0.439,0 -0.799,-0.361 -0.799,-0.8 0,-0.441 0.36,-0.8 0.799,-0.8 m 15.2,-11.2 -17.599,0 0,17.6 17.599,0 0,-17.6 z m 2.4,20.799 -22.399,0 c -0.44,0 -0.8,-0.36 -0.8,-0.8 l 0,-22.398 c 0,-0.441 0.36,-0.801 0.8,-0.801 L 8,-12.8 c 0.438,0 0.8,0.36 0.8,0.801 l 0,22.398 c 0,0.44 -0.362,0.8 -0.8,0.8"
       style="fill:#37bc9b;fill-opacity:1;fill-rule:nonzero;stroke:none"
       id="path102"
       inkscape:connector-curvature="0" />
  </g>
</svg>
