<?xml version="1.0" encoding="UTF-8" standalone="no"?>
<!-- Created with Inkscape (http://www.inkscape.org/) -->

<svg
   xmlns:dc="http://purl.org/dc/elements/1.1/"
   xmlns:cc="http://creativecommons.org/ns#"
   xmlns:rdf="http://www.w3.org/1999/02/22-rdf-syntax-ns#"
   xmlns:svg="http://www.w3.org/2000/svg"
   xmlns="http://www.w3.org/2000/svg"
   xmlns:sodipodi="http://sodipodi.sourceforge.net/DTD/sodipodi-0.dtd"
   xmlns:inkscape="http://www.inkscape.org/namespaces/inkscape"
   id="svg3039"
   version="1.1"
   inkscape:version="0.48.4 r9939"
   width="200"
   height="200"
   sodipodi:docname="SaveAsAssembly.svg">
  <metadata
     id="metadata3045">
    <rdf:RDF>
      <cc:Work
         rdf:about="">
        <dc:format>image/svg+xml</dc:format>
        <dc:type
           rdf:resource="http://purl.org/dc/dcmitype/StillImage" />
        <dc:title></dc:title>
      </cc:Work>
    </rdf:RDF>
  </metadata>
  <defs
     id="defs3043">
    <inkscape:perspective
       sodipodi:type="inkscape:persp3d"
       inkscape:vp_x="0 : 234.5 : 1"
       inkscape:vp_y="0 : 1000 : 0"
       inkscape:vp_z="450 : 234.5 : 1"
       inkscape:persp3d-origin="225 : 156.33333 : 1"
       id="perspective3826" />
  </defs>
  <sodipodi:namedview
     pagecolor="#ffffff"
     bordercolor="#666666"
     borderopacity="1"
     objecttolerance="10"
     gridtolerance="10"
     guidetolerance="10"
     inkscape:pageopacity="0"
     inkscape:pageshadow="2"
     inkscape:window-width="1920"
     inkscape:window-height="994"
     id="namedview3041"
     showgrid="false"
     fit-margin-top="0"
     fit-margin-left="0"
     fit-margin-right="0"
     fit-margin-bottom="0"
     inkscape:zoom="2.8465194"
     inkscape:cx="-2.0431232"
     inkscape:cy="77.183699"
     inkscape:window-x="0"
     inkscape:window-y="24"
     inkscape:window-maximized="1"
     inkscape:current-layer="svg3039" />
  <a
     id="a3821"
     style="fill:none;stroke:#37bc9b;stroke-opacity:1"
     transform="translate(-161.87499,-100.5625)" />
  <path
     style="font-size:medium;font-style:normal;font-variant:normal;font-weight:normal;font-stretch:normal;text-indent:0;text-align:start;text-decoration:none;line-height:normal;letter-spacing:normal;word-spacing:normal;text-transform:none;direction:ltr;block-progression:tb;writing-mode:lr-tb;text-anchor:start;baseline-shift:baseline;color:#000000;fill:#37bc9b;fill-opacity:1;fill-rule:nonzero;stroke:none;stroke-width:9.39999962;marker:none;visibility:visible;display:inline;overflow:visible;enable-background:accumulate;font-family:Sans;-inkscape-font-specification:Sans"
     d="m 111.78125,39 c -0.36094,-0.01349 -0.67017,0.01352 -0.875,0.09375 l -94.1875,0 c -3.811238,0.01093 -7.25664,3.501251 -7.25,7.3125 l 0,121.0625 c -0.0064,3.81125 3.438762,7.30162 7.25,7.3125 L 137.44537,175 c 0.86705,0 2.2162,0.044 2.41237,-0.29739 0.17488,-0.4243 0.17351,-0.39907 0.17351,-2.54636 l 0,-107.125 c -9.2e-4,-1.909502 -0.80377,-3.77706 -2.15625,-5.125 l -17.25,-17.3125 c -1.37703,-1.364414 -3.06089,-1.891239 -5.53125,-3.1875 -0.66,0.0075 -2.22968,-0.36588 -3.3125,-0.40625 z m -26.75,10.34375 c 2.656906,-0.03931 5.101808,2.405594 5.0625,5.0625 l 0,38.28125 C 90.270373,95.397869 87.841118,98 85.125,98 82.408882,98 79.979627,95.397869 80.15625,92.6875 l 0,-38.28125 c -0.03866,-2.601234 2.273939,-5.013576 4.875,-5.0625 z m -61,4.34375 17.46875,0 0.25,47.53125 c 0.0075,2.63802 2.424487,5.04152 5.0625,5.03125 l 52.40625,0 c 2.62686,-0.007 5.02401,-2.40439 5.03125,-5.03125 l 0,-47.53125 6.875,0 14.34375,14.375 0,92.375 -101.4375,-0.21875 z"
     id="path3819"
     inkscape:connector-curvature="0"
     sodipodi:nodetypes="cccccccccccccccccsccccccccccccccc" />
  <text
     xml:space="preserve"
     style="font-size:40px;font-style:normal;font-variant:normal;font-weight:bold;font-stretch:normal;line-height:125%;letter-spacing:0px;word-spacing:0px;fill:#37bc9b;fill-opacity:1;stroke:none;font-family:Verdana;-inkscape-font-specification:Verdana Bold"
     x="143.27734"
     y="62.99057"
     id="text3872"
     sodipodi:linespacing="125%"><tspan
       sodipodi:role="line"
       id="tspan3874"
       x="143.27734"
       y="62.99057"
       style="font-size:72px;font-style:normal;font-variant:normal;font-weight:bold;font-stretch:normal;fill:#37bc9b;fill-opacity:1;font-family:Verdana;-inkscape-font-specification:Verdana Bold">A</tspan></text>
</svg>
