<?xml version="1.0" encoding="UTF-8" standalone="no"?>
<!-- Created with Inkscape (http://www.inkscape.org/) -->

<svg
   xmlns:dc="http://purl.org/dc/elements/1.1/"
   xmlns:cc="http://creativecommons.org/ns#"
   xmlns:rdf="http://www.w3.org/1999/02/22-rdf-syntax-ns#"
   xmlns:svg="http://www.w3.org/2000/svg"
   xmlns="http://www.w3.org/2000/svg"
   xmlns:sodipodi="http://sodipodi.sourceforge.net/DTD/sodipodi-0.dtd"
   xmlns:inkscape="http://www.inkscape.org/namespaces/inkscape"
   id="svg3039"
   version="1.1"
   inkscape:version="0.48.4 r9939"
   width="200"
   height="200"
   sodipodi:docname="run-ok.svg"
   inkscape:export-filename="/home/data/Projects/MatisseWorkspace/Src/MatisseServer/ui/resources/run-ok.png"
   inkscape:export-xdpi="301"
   inkscape:export-ydpi="301">
  <metadata
     id="metadata3045">
    <rdf:RDF>
      <cc:Work
         rdf:about="">
        <dc:format>image/svg+xml</dc:format>
        <dc:type
           rdf:resource="http://purl.org/dc/dcmitype/StillImage" />
        <dc:title></dc:title>
      </cc:Work>
    </rdf:RDF>
  </metadata>
  <defs
     id="defs3043">
    <marker
       inkscape:stockid="TriangleOutL"
       orient="auto"
       refY="0.0"
       refX="0.0"
       id="TriangleOutL"
       style="overflow:visible">
      <path
         id="path3913"
         d="M 5.77,0.0 L -2.88,5.0 L -2.88,-5.0 L 5.77,0.0 z "
         style="fill-rule:evenodd;stroke:#000000;stroke-width:1.0pt"
         transform="scale(0.8)" />
    </marker>
    <marker
       inkscape:stockid="Arrow2Lend"
       orient="auto"
       refY="0.0"
       refX="0.0"
       id="Arrow2Lend"
       style="overflow:visible;">
      <path
         id="path3792"
         style="fill-rule:evenodd;stroke-width:0.62500000;stroke-linejoin:round;"
         d="M 8.7185878,4.0337352 L -2.2072895,0.016013256 L 8.7185884,-4.0017078 C 6.9730900,-1.6296469 6.9831476,1.6157441 8.7185878,4.0337352 z "
         transform="scale(1.1) rotate(180) translate(1,0)" />
    </marker>
    <inkscape:perspective
       sodipodi:type="inkscape:persp3d"
       inkscape:vp_x="0 : 234.5 : 1"
       inkscape:vp_y="0 : 1000 : 0"
       inkscape:vp_z="450 : 234.5 : 1"
       inkscape:persp3d-origin="225 : 156.33333 : 1"
       id="perspective3826" />
  </defs>
  <sodipodi:namedview
     pagecolor="#ffffff"
     bordercolor="#666666"
     borderopacity="1"
     objecttolerance="10"
     gridtolerance="10"
     guidetolerance="10"
     inkscape:pageopacity="0"
     inkscape:pageshadow="2"
     inkscape:window-width="1920"
     inkscape:window-height="994"
     id="namedview3041"
     showgrid="false"
     fit-margin-top="0"
     fit-margin-left="0"
     fit-margin-right="0"
     fit-margin-bottom="0"
     inkscape:zoom="2.8465194"
     inkscape:cx="-3.0376396"
     inkscape:cy="77.284572"
     inkscape:window-x="0"
     inkscape:window-y="24"
     inkscape:window-maximized="1"
     inkscape:current-layer="svg3039" />
  <a
     id="a3821"
     style="fill:none;stroke:#37bc9b;stroke-opacity:1"
     transform="translate(-161.87499,-100.5625)" />
  <path
     style="fill:#37bc9b;fill-opacity:1;stroke:none"
     d="m 94.368175,22.969014 c -2.302798,0.03757 -4.575982,1.022449 -6.178285,2.676812 -1.602303,1.654363 -2.514023,3.957866 -2.477965,6.260688 l 0,57.34375 c -1.436177,0.65892 -2.838111,1.35529 -4.1875,2.15625 l 0,-47.75 c 0.02836,-2.344512 -0.92714,-4.685456 -2.587983,-6.340492 -1.660842,-1.655035 -4.005118,-2.602327 -6.349517,-2.565758 -2.297517,0.03759 -4.565607,1.017978 -6.167123,2.665748 -1.601517,1.647769 -2.516946,3.942846 -2.489127,6.240502 l 0,65.500006 -10.875,-14.906253 c -2.207942,-3.140073 -6.071228,-5.041243 -9.90625,-4.875003 -4.160059,0.18171 -8.121631,2.815483 -9.89897,6.581143 -1.777339,3.76565 16.272803,27.819913 18.776782,31.146953 l 10.090938,18.67816 c 6.329005,17.28532 22.928353,29.625 42.406255,29.625 24.9317,0 45.125,-20.22454 45.125,-45.15625 0,-2.17254 -0.14067,-4.31581 -0.4375,-6.40625 l 0,-72.062506 c 0.0368,-2.349678 -0.91497,-4.699182 -2.57665,-6.360859 -1.66167,-1.661677 -4.01118,-2.613408 -6.36085,-2.576641 -2.3028,0.03757 -4.57599,1.022449 -6.17829,2.676812 -1.6023,1.654363 -2.51402,3.957866 -2.47796,6.260688 l 0,42.375003 c -1.94366,-1.46097 -4.01851,-2.769973 -6.1875,-3.906253 l 0,-52.375 c 0.0368,-2.349678 -0.91497,-4.699182 -2.57665,-6.360859 -1.66167,-1.661677 -4.01118,-2.613408 -6.36085,-2.576641 -2.3028,0.03757 -4.57599,1.022449 -6.17829,2.676812 -1.6023,1.654363 -2.51402,3.957866 -2.47796,6.260688 l 0,47.375 c -1.09555,-0.0795 -2.19659,-0.125 -3.3125,-0.125 -0.40939,0 -0.81193,0.0204 -1.21875,0.0312 l 0,-53.25 c 0.0368,-2.349628 -0.91497,-4.699132 -2.57665,-6.360809 -1.661673,-1.661677 -4.011177,-2.613408 -6.360855,-2.576641 z"
     id="path3835"
     inkscape:connector-curvature="0"
     sodipodi:nodetypes="csccccscsccccsccssccscsccccscsccsccsc" />
  <path
     sodipodi:type="arc"
     style="fill:none;stroke:#37bc9b;stroke-width:5.5999999;stroke-miterlimit:4;stroke-opacity:1;stroke-dasharray:none"
     id="path3943"
     sodipodi:cx="89.934395"
     sodipodi:cy="117.44304"
     sodipodi:rx="96.960518"
     sodipodi:ry="96.960518"
     d="m 186.89491,117.44304 a 96.960518,96.960518 0 1 1 -193.921033,0 96.960518,96.960518 0 1 1 193.921033,0 z"
     transform="matrix(0.92957009,0,0,0.92957009,17.575871,-10.347727)" />
</svg>
