<?xml version="1.0" encoding="UTF-8" standalone="no"?>
<!-- Created with Inkscape (http://www.inkscape.org/) -->

<svg
   xmlns:dc="http://purl.org/dc/elements/1.1/"
   xmlns:cc="http://creativecommons.org/ns#"
   xmlns:rdf="http://www.w3.org/1999/02/22-rdf-syntax-ns#"
   xmlns:svg="http://www.w3.org/2000/svg"
   xmlns="http://www.w3.org/2000/svg"
   xmlns:sodipodi="http://sodipodi.sourceforge.net/DTD/sodipodi-0.dtd"
   xmlns:inkscape="http://www.inkscape.org/namespaces/inkscape"
   id="svg3039"
   version="1.1"
   inkscape:version="0.48.4 r9939"
   width="200"
   height="200"
   sodipodi:docname="refresh.svg"
   inkscape:export-filename="/home/data/Projects/MatisseWorkspace/Src/MatisseServer/ui/resources/view-refresh-3.png"
   inkscape:export-xdpi="301"
   inkscape:export-ydpi="301">
  <metadata
     id="metadata3045">
    <rdf:RDF>
      <cc:Work
         rdf:about="">
        <dc:format>image/svg+xml</dc:format>
        <dc:type
           rdf:resource="http://purl.org/dc/dcmitype/StillImage" />
        <dc:title></dc:title>
      </cc:Work>
    </rdf:RDF>
  </metadata>
  <defs
     id="defs3043">
    <marker
       inkscape:stockid="TriangleOutL"
       orient="auto"
       refY="0.0"
       refX="0.0"
       id="TriangleOutL"
       style="overflow:visible">
      <path
         id="path3913"
         d="M 5.77,0.0 L -2.88,5.0 L -2.88,-5.0 L 5.77,0.0 z "
         style="fill-rule:evenodd;stroke:#000000;stroke-width:1.0pt"
         transform="scale(0.8)" />
    </marker>
    <marker
       inkscape:stockid="Arrow2Lend"
       orient="auto"
       refY="0.0"
       refX="0.0"
       id="Arrow2Lend"
       style="overflow:visible;">
      <path
         id="path3792"
         style="fill-rule:evenodd;stroke-width:0.62500000;stroke-linejoin:round;"
         d="M 8.7185878,4.0337352 L -2.2072895,0.016013256 L 8.7185884,-4.0017078 C 6.9730900,-1.6296469 6.9831476,1.6157441 8.7185878,4.0337352 z "
         transform="scale(1.1) rotate(180) translate(1,0)" />
    </marker>
    <inkscape:perspective
       sodipodi:type="inkscape:persp3d"
       inkscape:vp_x="0 : 234.5 : 1"
       inkscape:vp_y="0 : 1000 : 0"
       inkscape:vp_z="450 : 234.5 : 1"
       inkscape:persp3d-origin="225 : 156.33333 : 1"
       id="perspective3826" />
  </defs>
  <sodipodi:namedview
     pagecolor="#ffffff"
     bordercolor="#666666"
     borderopacity="1"
     objecttolerance="10"
     gridtolerance="10"
     guidetolerance="10"
     inkscape:pageopacity="0"
     inkscape:pageshadow="2"
     inkscape:window-width="1920"
     inkscape:window-height="994"
     id="namedview3041"
     showgrid="false"
     fit-margin-top="0"
     fit-margin-left="0"
     fit-margin-right="0"
     fit-margin-bottom="0"
     inkscape:zoom="2.8465194"
     inkscape:cx="7.4794597"
     inkscape:cy="77.183699"
     inkscape:window-x="0"
     inkscape:window-y="24"
     inkscape:window-maximized="1"
     inkscape:current-layer="svg3039" />
  <a
     id="a3821"
     style="fill:none;stroke:#37bc9b;stroke-opacity:1"
     transform="translate(-161.87499,-100.5625)" />
  <g
     transform="matrix(7.2956466,0,0,-7.2956466,155.36294,146.28275)"
     id="g96"
     style="fill:#37bc9b;fill-opacity:1">
    <path
       d="M 0,0 C -0.829,0 -1.5,0.671 -1.5,1.5 -1.5,2.329 -0.829,3 0,3 0.829,3 1.5,2.329 1.5,1.5 1.5,0.671 0.829,0 0,0 m 0,6 c -2.484,0 -4.5,-2.015 -4.5,-4.5 0,-1.708 0.961,-3.174 2.361,-3.938 L 0,-6 2.139,-2.438 C 3.539,-1.674 4.5,-0.208 4.5,1.5 4.5,3.985 2.487,6 0,6 m -7.5,-5.221 -4.5,-2.165 0,14.834 4.5,2.163 0,-14.832 z m -5.999,-2.165 -4.5,2.165 0,14.832 4.5,-2.163 0,-14.834 z M -1.5,7.287 C -1.017,7.412 -0.521,7.5 0,7.5 l 0,6.894 -6.75,3.245 -5.999,-2.885 -6.75,3.245 0,-18.164 6.75,-3.246 5.999,2.886 0.75,-0.363 0,16.499 4.5,-2.163 0,-6.161 z"
       style="fill:#37bc9b;fill-opacity:1;fill-rule:nonzero;stroke:none"
       id="path98"
       inkscape:connector-curvature="0" />
  </g>
</svg>
