<?xml version="1.0" encoding="UTF-8" standalone="no"?>
<!-- Generated by IcoMoon.io -->

<svg
   xmlns:dc="http://purl.org/dc/elements/1.1/"
   xmlns:cc="http://creativecommons.org/ns#"
   xmlns:rdf="http://www.w3.org/1999/02/22-rdf-syntax-ns#"
   xmlns:svg="http://www.w3.org/2000/svg"
   xmlns="http://www.w3.org/2000/svg"
   xmlns:sodipodi="http://sodipodi.sourceforge.net/DTD/sodipodi-0.dtd"
   xmlns:inkscape="http://www.inkscape.org/namespaces/inkscape"
   version="1.1"
   width="27.589487"
   height="27.589487"
   viewBox="0 0 27.589487 27.589487"
   id="svg2"
   inkscape:version="0.48.4 r9939"
   sodipodi:docname="Main 2.svg">
  <metadata
     id="metadata10">
    <rdf:RDF>
      <cc:Work
         rdf:about="">
        <dc:format>image/svg+xml</dc:format>
        <dc:type
           rdf:resource="http://purl.org/dc/dcmitype/StillImage" />
      </cc:Work>
    </rdf:RDF>
  </metadata>
  <defs
     id="defs8" />
  <sodipodi:namedview
     pagecolor="#ffffff"
     bordercolor="#666666"
     borderopacity="1"
     objecttolerance="10"
     gridtolerance="10"
     guidetolerance="10"
     inkscape:pageopacity="0"
     inkscape:pageshadow="2"
     inkscape:window-width="1671"
     inkscape:window-height="1325"
     id="namedview6"
     showgrid="false"
     fit-margin-top="0"
     fit-margin-left="0"
     fit-margin-right="0"
     fit-margin-bottom="0"
     inkscape:zoom="16.68772"
     inkscape:cx="0.26256024"
     inkscape:cy="13.376584"
     inkscape:window-x="213"
     inkscape:window-y="24"
     inkscape:window-maximized="0"
     inkscape:current-layer="svg2" />
  <path
     sodipodi:type="arc"
     style="fill:none;stroke:{%color.{&context.color2.alias&}%};stroke-width:2.63681555;stroke-linecap:round;stroke-linejoin:round;stroke-miterlimit:4;stroke-opacity:1;stroke-dasharray:none;stroke-dashoffset:10.73234382"
     id="path2987"
     sodipodi:cx="10.336943"
     sodipodi:cy="12.719197"
     sodipodi:rx="16.86869"
     sodipodi:ry="16.86869"
     d="m 27.205633,12.719197 a 16.86869,16.86869 0 1 1 -33.7373808,0 16.86869,16.86869 0 1 1 33.7373808,0 z"
     transform="matrix(0.75849064,0,0,0.75849064,5.9542695,4.1473517)" />
  <path
     style="fill:{%color.{&context.color2.alias&}%};fill-opacity:1;stroke:none"
     d="M 10.734744,22.336442 C 10.381866,22.160911 10.154597,21.980879 9.6540277,21.480346 8.6726976,20.499088 8.2930753,19.871999 6.4417198,16.174016 l -1.5892293,-3.1744 0.023908,-0.375469 c 0.057498,-0.902987 0.9542198,-1.295513 1.5239746,-0.667094 0.070073,0.07729 0.4849706,0.760739 0.9219949,1.518782 0.4370242,0.758042 0.8745164,1.4949 0.972205,1.637462 0.4429628,0.646437 1.1260006,0.653852 1.4163227,0.01538 0.086364,-0.189932 0.1010569,-0.712825 0.1275681,-4.53986 0.02945,-4.251232 0.032075,-4.3280354 0.1535134,-4.4906207 0.4526937,-0.6060813 1.2237477,-0.6040619 1.6190427,0.00424 0.109231,0.1680908 0.116577,0.3554534 0.145022,3.6987057 l 0.02996,3.5216457 0.135132,0.135088 c 0.185696,0.185634 0.562755,0.185633 0.748448,-4e-6 l 0.135133,-0.135091 0.02996,-4.0389301 c 0.02939,-3.9620141 0.03232,-4.0420809 0.153514,-4.2043564 0.210256,-0.2815176 0.421441,-0.400705 0.757847,-0.4277107 0.352408,-0.02829 0.611253,0.1006932 0.850896,0.4240059 0.12355,0.166686 0.125791,0.227405 0.155321,4.2080574 0.02951,3.9779849 0.03182,4.0407929 0.153393,4.1623229 0.06789,0.06786 0.22169,0.139336 0.341785,0.158825 0.187954,0.0305 0.243769,0.01002 0.400907,-0.147119 l 0.182553,-0.182553 0,-3.4163939 c 0,-2.2744491 0.02136,-3.4727801 0.06391,-3.5850867 0.215776,-0.5694958 0.930409,-0.8088154 1.429314,-0.4786556 0.44179,0.2923628 0.424348,0.1098398 0.424348,4.4407392 0,4.274112 -0.0051,4.212419 0.358216,4.339069 0.207729,0.07242 0.53522,-0.01954 0.638201,-0.179197 0.02874,-0.04456 0.06574,-1.218398 0.08222,-2.608529 0.029,-2.4463914 0.03398,-2.5329372 0.155321,-2.6965939 0.242019,-0.326435 0.497418,-0.4518926 0.867311,-0.4260413 0.39286,0.027456 0.654628,0.1881097 0.797671,0.4895503 0.08496,0.1790437 0.09721,0.5224109 0.09676,2.7127549 -3e-4,1.379271 -0.027,2.817872 -0.05936,3.196894 -0.332984,3.899086 -1.596677,6.567067 -3.469348,7.324685 -0.330415,0.133674 -0.38235,0.13617 -3.184881,0.153046 l -2.84899,0.01715 -0.446847,-0.222272 0,0 z"
     id="path3757"
     inkscape:connector-curvature="0" />
</svg>
