<?xml version="1.0" encoding="utf-8"?>
<!-- Generator: Adobe Illustrator 16.0.0, SVG Export Plug-In . SVG Version: 6.00 Build 0)  -->
<!DOCTYPE svg PUBLIC "-//W3C//DTD SVG 1.1//EN" "http://www.w3.org/Graphics/SVG/1.1/DTD/svg11.dtd">
<svg version="1.1" id="Calque_1" xmlns="http://www.w3.org/2000/svg" xmlns:xlink="http://www.w3.org/1999/xlink" x="0px" y="0px"
	 width="16px" height="16px" viewBox="0 0 16 16" enable-background="new 0 0 16 16" xml:space="preserve">
<path fill-rule="evenodd" clip-rule="evenodd" fill="{%color.white%}" d="M5.145,16h7.151c0,0,2.687-7.089,3.511-9.264
	c0.829-2.188-1.214-2.687-1.979-0.625c-0.551,1.486-0.957,1.688-0.957,1.688s-0.842-0.002-0.703-0.875
	c0.191-1.188,0.447-2.625,0.83-4.812c0.238-1.356-1.979-1.562-2.17-0.438s-0.639,4.125-0.766,4.812
	c-0.129,0.688-0.94,1.249-1.022-0.438c-0.054-1.132-0.128-2.787-0.128-5c0-1.5-2.426-1.312-2.426,0.062
	c0,0.961,0.078,4.874,0.063,5.625c-0.014,0.75-0.353,0.987-0.83-0.062C5.208,5.548,4.666,4.217,4.187,3.111
	C3.485,1.486,1.582,2.601,2.016,3.736c0.381,0.992,1.301,3.187,2.043,4.875c0.381,0.863,0.862,2.577-0.319,1.688
	c-0.83-0.625-1.149-1.25-2.107-1.875S-0.29,9.143,0.081,9.59c0.83,0.999,2.291,2.573,3.234,4.083C4.017,14.798,5.145,16,5.145,16z"
	/>
</svg>
