<?xml version="1.0" encoding="UTF-8" standalone="no"?>
<!-- Generator: Adobe Illustrator 17.1.0, SVG Export Plug-In . SVG Version: 6.00 Build 0)  -->

<svg
   xmlns:dc="http://purl.org/dc/elements/1.1/"
   xmlns:cc="http://creativecommons.org/ns#"
   xmlns:rdf="http://www.w3.org/1999/02/22-rdf-syntax-ns#"
   xmlns:svg="http://www.w3.org/2000/svg"
   xmlns="http://www.w3.org/2000/svg"
   xmlns:sodipodi="http://sodipodi.sourceforge.net/DTD/sodipodi-0.dtd"
   xmlns:inkscape="http://www.inkscape.org/namespaces/inkscape"
   version="1.1"
   id="Capa_1"
   x="0px"
   y="0px"
   viewBox="0 0 30 30"
   xml:space="preserve"
   inkscape:version="0.48.4 r9939"
   width="100%"
   height="100%"
   sodipodi:docname="Dossier.svg"><metadata
     id="metadata39"><rdf:RDF><cc:Work
         rdf:about=""><dc:format>image/svg+xml</dc:format><dc:type
           rdf:resource="http://purl.org/dc/dcmitype/StillImage" /></cc:Work></rdf:RDF></metadata><defs
     id="defs37" /><sodipodi:namedview
     pagecolor="#ffffff"
     bordercolor="#666666"
     borderopacity="1"
     objecttolerance="10"
     gridtolerance="10"
     guidetolerance="10"
     inkscape:pageopacity="0"
     inkscape:pageshadow="2"
     inkscape:window-width="2560"
     inkscape:window-height="1354"
     id="namedview35"
     showgrid="false"
     inkscape:zoom="23.660771"
     inkscape:cx="11.587049"
     inkscape:cy="22.283424"
     inkscape:window-x="0"
     inkscape:window-y="24"
     inkscape:window-maximized="1"
     inkscape:current-layer="Capa_1" /><path
     d="M 1.1621759,10.576305 H 28.919283 c 0.317792,0 0.610862,0.129047 0.825516,0.363113 0.214653,0.234058 0.317789,0.537495 0.290145,0.853957 L 28.676322,27.36396 c -0.05091,0.582816 -0.530318,1.022355 -1.115527,1.022355 H 2.8864371 c -0.5716525,0 -1.0500011,-0.428507 -1.1130011,-0.996438 L 0.04917491,11.819293 C 0.01368753,11.498578 0.11270661,11.189692 0.32789037,10.949256 0.54320703,10.708685 0.8394668,10.576305 1.1621759,10.576305 z M 28.55338,8.5826311 V 6.1191173 c 0,-0.5506519 -0.33547,-0.9921841 -0.886121,-0.9921841 H 16.591342 V 4.8157859 c 0,-1.6240457 -1.086684,-2.8787291 -2.558546,-2.8787291 H 4.086628 c -1.4718621,0 -2.7801102,1.2546834 -2.7801102,2.8787291 v 3.3162755 c 0,0.1636102 0.09038,0.3161966 0.168399,0.4505697 H 28.55338 z"
     id="path3"
	 style="fill:{%color.black%};fill-rule:evenodd"
     inkscape:connector-curvature="0" /><g
     id="g5"
     transform="translate(0,-195.69301)" /><g
     id="g7"
     transform="translate(0,-195.69301)" /><g
     id="g9"
     transform="translate(0,-195.69301)" /><g
     id="g11"
     transform="translate(0,-195.69301)" /><g
     id="g13"
     transform="translate(0,-195.69301)" /><g
     id="g15"
     transform="translate(0,-195.69301)" /><g
     id="g17"
     transform="translate(0,-195.69301)" /><g
     id="g19"
     transform="translate(0,-195.69301)" /><g
     id="g21"
     transform="translate(0,-195.69301)" /><g
     id="g23"
     transform="translate(0,-195.69301)" /><g
     id="g25"
     transform="translate(0,-195.69301)" /><g
     id="g27"
     transform="translate(0,-195.69301)" /><g
     id="g29"
     transform="translate(0,-195.69301)" /><g
     id="g31"
     transform="translate(0,-195.69301)" /><g
     id="g33"
     transform="translate(0,-195.69301)" /></svg>